<svg width="1280" height="800" viewBox="0 0 1280 800" xmlns="http://www.w3.org/2000/svg">
  <rect width="1280" height="800" fill="#f8fafc"/>
  <rect x="60" y="60" width="1160" height="680" rx="24" fill="white" stroke="#dbe4ee"/>
  <rect x="100" y="100" width="260" height="600" rx="20" fill="#0f172a"/>
  <text x="130" y="160" fill="#ffffff" font-size="24" font-family="Segoe UI, Arial, sans-serif">Admin Panel</text>
  <rect x="130" y="210" width="180" height="42" rx="10" fill="#1e293b"/>
  <rect x="130" y="270" width="180" height="42" rx="10" fill="#1e293b"/>
  <rect x="130" y="330" width="180" height="42" rx="10" fill="#1e293b"/>
  <text x="155" y="238" fill="#ffffff" font-size="16" font-family="Segoe UI, Arial, sans-serif">Users</text>
  <text x="155" y="298" fill="#ffffff" font-size="16" font-family="Segoe UI, Arial, sans-serif">Activity</text>
  <text x="155" y="358" fill="#ffffff" font-size="16" font-family="Segoe UI, Arial, sans-serif">Settings</text>
  <rect x="400" y="110" width="720" height="120" rx="20" fill="#eff6ff"/>
  <text x="430" y="165" fill="#1d4ed8" font-size="30" font-family="Segoe UI, Arial, sans-serif">Monitor users and activity</text>
  <rect x="400" y="260" width="220" height="120" rx="16" fill="#dcfce7"/>
  <rect x="650" y="260" width="220" height="120" rx="16" fill="#fef3c7"/>
  <rect x="900" y="260" width="220" height="120" rx="16" fill="#fee2e2"/>
  <text x="430" y="320" fill="#166534" font-size="20" font-family="Segoe UI, Arial, sans-serif">Active Users</text>
  <text x="680" y="320" fill="#92400e" font-size="20" font-family="Segoe UI, Arial, sans-serif">Pending Requests</text>
  <text x="930" y="320" fill="#991b1b" font-size="20" font-family="Segoe UI, Arial, sans-serif">Suspended Accounts</text>
  <rect x="400" y="420" width="700" height="250" rx="18" fill="#f8fafc" stroke="#e2e8f0"/>
  <text x="430" y="470" fill="#334155" font-size="22" font-family="Segoe UI, Arial, sans-serif">Recent activity</text>
</svg>