<svg width="1280" height="800" viewBox="0 0 1280 800" xmlns="http://www.w3.org/2000/svg">
  <rect width="1280" height="800" fill="#f8fafc"/>
  <rect x="40" y="40" width="1200" height="720" rx="24" fill="white" stroke="#dbe4ee"/>
  <rect x="70" y="80" width="260" height="640" rx="18" fill="#0f172a"/>
  <text x="100" y="130" fill="#ffffff" font-size="24" font-family="Segoe UI, Arial, sans-serif">Channels</text>
  <rect x="100" y="160" width="200" height="42" rx="10" fill="#1e293b"/>
  <rect x="100" y="220" width="200" height="42" rx="10" fill="#1e293b"/>
  <rect x="100" y="280" width="200" height="42" rx="10" fill="#1e293b"/>
  <text x="120" y="188" fill="#ffffff" font-size="16" font-family="Segoe UI, Arial, sans-serif">General</text>
  <text x="120" y="248" fill="#ffffff" font-size="16" font-family="Segoe UI, Arial, sans-serif">Private</text>
  <text x="120" y="308" fill="#ffffff" font-size="16" font-family="Segoe UI, Arial, sans-serif">Admin</text>
  <rect x="360" y="80" width="820" height="640" rx="18" fill="#ffffff" stroke="#e2e8f0"/>
  <rect x="390" y="120" width="420" height="56" rx="14" fill="#eff6ff"/>
  <text x="410" y="154" fill="#1d4ed8" font-size="20" font-family="Segoe UI, Arial, sans-serif">Secure conversation</text>
  <rect x="390" y="200" width="320" height="70" rx="16" fill="#dbeafe"/>
  <rect x="730" y="290" width="320" height="70" rx="16" fill="#e0f2fe"/>
  <rect x="390" y="390" width="360" height="70" rx="16" fill="#dbeafe"/>
  <rect x="390" y="560" width="620" height="54" rx="12" fill="#f8fafc" stroke="#cbd5e1"/>
  <text x="415" y="236" fill="#1e3a8a" font-size="16" font-family="Segoe UI, Arial, sans-serif">Hello, are you ready to discuss the agenda?</text>
  <text x="760" y="326" fill="#0369a1" font-size="16" font-family="Segoe UI, Arial, sans-serif">Yes, I am prepared.</text>
  <text x="415" y="426" fill="#1e3a8a" font-size="16" font-family="Segoe UI, Arial, sans-serif">Perfect. I will share the final notes soon.</text>
  <text x="415" y="594" fill="#64748b" font-size="16" font-family="Segoe UI, Arial, sans-serif">Type your message...</text>
</svg>